<svg xmlns="http://www.w3.org/2000/svg" viewBox="0 0 512 512" role="img">
  <title>PHOCA — seal coin logo</title>
  <desc>A round gold coin, a nod to the ancient coins of Phocaea, holding a cute round gray seal face on an ocean-blue disc.</desc>

  <!-- Coin: electrum-gold ring (Phocaea minted electrum coins ~600 BC) -->
  <circle cx="256" cy="256" r="252" fill="#D9A93F"/>
  <circle cx="256" cy="256" r="244" fill="#EEC569"/>
  <circle cx="256" cy="256" r="224" fill="#2E7DB2"/>

  <!-- Seal head -->
  <circle cx="256" cy="272" r="166" fill="#B9C6D2"/>
  <!-- soft top highlight -->
  <ellipse cx="216" cy="164" rx="64" ry="30" fill="#CBD6E0" opacity="0.8"/>

  <!-- Muzzle -->
  <ellipse cx="256" cy="322" rx="96" ry="68" fill="#EAF1F6"/>

  <!-- Blush -->
  <ellipse cx="146" cy="308" rx="22" ry="13" fill="#F2A9A3" opacity="0.55"/>
  <ellipse cx="366" cy="308" rx="22" ry="13" fill="#F2A9A3" opacity="0.55"/>

  <!-- Eyes: big, dark, glossy -->
  <circle cx="194" cy="242" r="27" fill="#22303C"/>
  <circle cx="318" cy="242" r="27" fill="#22303C"/>
  <circle cx="203" cy="232" r="9" fill="#FFFFFF"/>
  <circle cx="327" cy="232" r="9" fill="#FFFFFF"/>
  <circle cx="186" cy="250" r="4" fill="#FFFFFF" opacity="0.7"/>
  <circle cx="310" cy="250" r="4" fill="#FFFFFF" opacity="0.7"/>

  <!-- Nose -->
  <path d="M234 292 Q256 282 278 292 Q278 312 256 320 Q234 312 234 292 Z" fill="#33424F"/>

  <!-- Mouth: little w -->
  <path d="M256 320 L256 330 Q256 344 238 348" fill="none" stroke="#33424F" stroke-width="7" stroke-linecap="round"/>
  <path d="M256 330 Q256 344 274 348" fill="none" stroke="#33424F" stroke-width="7" stroke-linecap="round"/>

  <!-- Whisker dots -->
  <circle cx="196" cy="322" r="4" fill="#9FB2C0"/>
  <circle cx="184" cy="338" r="4" fill="#9FB2C0"/>
  <circle cx="200" cy="352" r="4" fill="#9FB2C0"/>
  <circle cx="316" cy="322" r="4" fill="#9FB2C0"/>
  <circle cx="328" cy="338" r="4" fill="#9FB2C0"/>
  <circle cx="312" cy="352" r="4" fill="#9FB2C0"/>

  <!-- Whiskers -->
  <path d="M172 320 Q128 310 96 318" fill="none" stroke="#8FA3B3" stroke-width="4" stroke-linecap="round"/>
  <path d="M166 338 Q122 338 92 348" fill="none" stroke="#8FA3B3" stroke-width="4" stroke-linecap="round"/>
  <path d="M340 320 Q384 310 416 318" fill="none" stroke="#8FA3B3" stroke-width="4" stroke-linecap="round"/>
  <path d="M346 338 Q390 338 420 348" fill="none" stroke="#8FA3B3" stroke-width="4" stroke-linecap="round"/>
</svg>
